<svg width="72" height="28" xmlns="http://www.w3.org/2000/svg" xmlns:xlink="http://www.w3.org/1999/xlink"><defs><path id="a" d="M35.909 27.672H0V0h71.817v27.672H35.91z"/></defs><g fill="none" fill-rule="evenodd"><mask id="b" fill="#fff"><use xlink:href="#a"/></mask><path d="M71.817 27.672C70.9 24.454 67.97 22.1 64.496 22.1a7.63 7.63 0 0 0-.983.066c-1.814-4.189-5.944-7.117-10.752-7.117-2.085 0-4.042.553-5.739 1.519C46.9 7.397 39.522 0 30.432 0c-9.165 0-16.595 7.52-16.595 16.798 0 .23.008.46.017.688a11.658 11.658 0 0 0-2.213-.214C5.655 17.272.72 21.81 0 27.672h71.817z" fill="#FFF" mask="url(#b)"/></g></svg>