<svg width="60" height="82" xmlns="http://www.w3.org/2000/svg" xmlns:xlink="http://www.w3.org/1999/xlink"><defs><path id="a" d="M52.187.18H.429v58.31h51.758V.18z"/><path id="c" d="M27.446.18H.096v58.31h27.35z"/></defs><g fill="none" fill-rule="evenodd"><path d="M24.945 58.408l.742 8.585M12.485 45.738l9.592 21.255m24.887-21.255l-9.592 21.255m-2.744-8.585l-.743 8.585" stroke="#351F5B" stroke-width="1.8" stroke-linecap="round"/><path d="M14.145 13.007c0 3.957-3.166 7.164-7.072 7.164S0 16.964 0 13.007s3.167-7.165 7.073-7.165c3.906 0 7.072 3.208 7.072 7.165m45.635 0c0 3.957-3.166 7.164-7.072 7.164-3.907 0-7.073-3.207-7.073-7.164s3.166-7.165 7.073-7.165c3.906 0 7.072 3.208 7.072 7.165M40.052 71.491h.002l-1.842-2.046h-.001a1.259 1.259 0 0 0-1.268-.375 1.28 1.28 0 0 0-.91.97l-.579 2.706h.001c-.088.41-.085.848.03 1.281.386 1.448 1.857 2.306 3.286 1.915 1.43-.39 2.276-1.88 1.89-3.328a2.71 2.71 0 0 0-.609-1.123m-20.324 0h-.002l1.842-2.046h.001c.31-.343.794-.504 1.268-.375.475.13.813.515.91.97h.001l.578 2.706h-.001c.088.41.085.848-.03 1.281-.386 1.448-1.857 2.306-3.286 1.915-1.43-.39-2.275-1.88-1.89-3.328a2.71 2.71 0 0 1 .61-1.123" fill="#351F5B"/><path fill="#FCC000" d="M37.039 81.919H22.741l-1.833-14.926h17.964z"/><path d="M32.238 73.07h.002l-1.236-2.427h-.001a1.251 1.251 0 0 0-1.113-.687c-.485 0-.904.28-1.112.687h-.001L27.54 73.07h.002a2.693 2.693 0 0 0-.296 1.229c0 1.479 1.184 2.678 2.644 2.678 1.46 0 2.644-1.2 2.644-2.678 0-.443-.108-.86-.296-1.229" fill="#351F5B"/><g transform="translate(3.582 .274)"><mask id="b" fill="#fff"><use xlink:href="#a"/></mask><path d="M19.854 58.49h12.908c.294-3.767 2.438-7.132 5.71-8.953 8.16-4.41 13.715-13.119 13.715-23.143C52.187 11.916 40.6.18 26.308.18 12.015.18.429 11.916.429 26.394c0 10.024 5.555 18.732 13.716 23.143 3.271 1.82 5.415 5.186 5.71 8.952" fill="#FFF" mask="url(#b)"/></g><g transform="translate(16.12 .274)"><mask id="d" fill="#fff"><use xlink:href="#c"/></mask><path d="M10.36 58.49h6.82c.157-3.767 1.29-7.132 3.018-8.953 4.312-4.41 7.248-13.119 7.248-23.143C27.446 11.916 21.323.18 13.77.18 6.218.18.096 11.916.096 26.394c0 10.024 2.935 18.732 7.247 23.143 1.73 1.82 2.862 5.186 3.017 8.952" fill="#E6FBFF" mask="url(#d)"/></g></g></svg>