<svg width="1440" height="610" xmlns="http://www.w3.org/2000/svg" xmlns:xlink="http://www.w3.org/1999/xlink"><defs><path id="a" d="M82.611.128H.301v61.736h82.31V.128z"/><path id="c" d="M0 225.872h306.828V.322H0z"/><path id="e" d="M.166 114h124.81V.34H.165z"/><path d="M.301 12.08C3.784 5.581 10.443.975 18.344.463l3.503-.227c.487-.032.97-.047 1.451-.047 8.422 0 15.869 4.773 19.573 11.89H.3z" id="g"/><path id="i" d="M0 476.861h479.98V.001H0z"/><path id="k" d="M28.87 17.931h28.87V0H0v17.931z"/><path id="m" d="M114.587.219H0v43.965h114.587V.22z"/><path id="o" d="M15.656.053H.129v17.19h15.527V.052z"/><path id="q" d="M47.286 29.885h47.287V0H0v29.885z"/></defs><g fill="none" fill-rule="evenodd"><path d="M366.038 538.812c-5.371-7.302-14.03-12.042-23.798-12.042-1.274 0-2.527.09-3.758.246-4.022-21.825-23.159-38.365-46.176-38.365-17.807 0-33.298 9.898-41.261 24.484a36.835 36.835 0 0 0-2.747-.113c-14.79 0-27.518 8.811-33.211 21.464a41.223 41.223 0 0 0-29.93-7.797C179.522 496.146 152.712 473 120.465 473c-24.946 0-46.648 13.852-57.805 34.264a51.661 51.661 0 0 0-3.847-.158c-28.158 0-50.984 22.772-50.984 50.862a50.7 50.7 0 0 0 .531 7.304 28.96 28.96 0 0 0-8.661-1.32c-13.101 0-24.151 8.701-27.699 20.621h227.692V640h1037.586v-55.427h130.303v-4.543H1452c-6.973-9.547-18.26-15.756-31.006-15.756 0-21.13-17.17-38.257-38.349-38.257-1.655 0-3.283.116-4.883.32-5.227-28.332-30.095-49.803-60.007-49.803-23.14 0-43.27 12.849-53.62 31.783a47.92 47.92 0 0 0-3.568-.147c-15.34 0-28.974 7.287-37.614 18.58-4.13-21.694-23.203-38.1-46.127-38.1-17.806 0-33.297 9.899-41.26 24.485a36.835 36.835 0 0 0-2.747-.113 36.28 36.28 0 0 0-24.054 9.07 36.28 36.28 0 0 0-24.054-9.07c-.924 0-1.838.045-2.746.113-7.963-14.586-23.454-24.484-41.26-24.484-23.018 0-42.155 16.54-46.177 38.365a29.784 29.784 0 0 0-3.758-.246c-9.767 0-18.427 4.74-23.798 12.042-5.37-7.302-14.03-12.042-23.797-12.042-1.274 0-2.527.09-3.758.246-4.023-21.825-23.16-38.365-46.177-38.365-17.806 0-33.297 9.898-41.26 24.484a36.835 36.835 0 0 0-2.747-.113c-14.79 0-27.519 8.811-33.211 21.464a41.223 41.223 0 0 0-28.188-7.984 38.427 38.427 0 0 0-1.824-.247C780.202 495.927 753.494 473 721.4 473c-24.946 0-46.649 13.852-57.805 34.264a51.661 51.661 0 0 0-3.848-.158c-15.236 0-28.91 6.667-38.253 17.237-5.034-20.489-23.535-35.692-45.603-35.692-17.806 0-33.297 9.898-41.26 24.484a36.835 36.835 0 0 0-2.747-.113 36.28 36.28 0 0 0-24.054 9.07 36.28 36.28 0 0 0-24.053-9.07c-.925 0-1.839.045-2.746.113-7.964-14.586-23.455-24.484-41.262-24.484-23.017 0-42.153 16.54-46.176 38.365a29.784 29.784 0 0 0-3.758-.246c-9.767 0-18.426 4.74-23.797 12.042z" fill="#43BAFF" opacity=".1"/><g transform="translate(96 180)"><g transform="translate(64.039 .193)"><mask id="b" fill="#fff"><use xlink:href="#a"/></mask><path d="M29.173 3.975c2.344-4.7 8.854-5.199 11.886-.909l17.425 24.657 24.127 34.14H.302l17.027-34.14L29.173 3.975z" fill="#655EB5" mask="url(#b)"/></g><path d="M84.289 121.224c-.918-5.16-5.415-9.082-10.838-9.082-5.422 0-9.92 3.922-10.837 9.082H84.29z" fill="#FFF"/><path d="M105.495 121.224c-1.357-7.63-8.005-13.427-16.021-13.427-8.017 0-14.666 5.798-16.022 13.427h32.043z" fill="#FFF"/><path d="M186.44 33.468v.002a3.66 3.66 0 0 1 3.668-.545 4.787 4.787 0 0 0 1.806.352 4.79 4.79 0 0 0 3.28-1.294v.001a3.72 3.72 0 0 1 3.682-.82 2.836 2.836 0 1 0 0-5.398 3.72 3.72 0 0 1-3.682-.82 4.79 4.79 0 0 0-3.28-1.294c-.64 0-1.248.126-1.806.352a3.66 3.66 0 0 1-3.668-.544v.001a6.396 6.396 0 0 0-4.033-1.424 6.427 6.427 0 0 0-6.426 6.428 6.427 6.427 0 0 0 10.459 5.003" fill="#A3D830"/><path d="M177.104 38.544h7.294a3.395 3.395 0 0 0 3.394-3.395v-3.907" stroke="#383F79" stroke-width="4.32"/><path d="M111.734 44.812h73.637a6.343 6.343 0 0 1 6.341 6.343v13.563h-86.32V51.155a6.342 6.342 0 0 1 6.342-6.343" fill="#11BCB8"/><path d="M124.182 32.135h48.741a6.037 6.037 0 0 1 6.036 6.039v7.986h-60.814v-7.986a6.038 6.038 0 0 1 6.037-6.039" fill="#11BCB8"/><mask id="d" fill="#fff"><use xlink:href="#c"/></mask><path fill="#11BCB8" mask="url(#d)" d="M126.361 32.405h44.382V22.17h-44.382z"/><path d="M86.316 77.342h140.88a3.454 3.454 0 0 0 3.454-3.455c0-6.655-5.393-12.05-12.045-12.05H94.907c-6.652 0-12.044 5.395-12.044 12.05a3.454 3.454 0 0 0 3.453 3.455" fill="#24C996" mask="url(#d)"/><path d="M121.042 136.65c10.388 13.47 30.703 13.47 41.09 0l12.598-16.334 33.143-42.974H75.301l33.143 42.974 12.598 16.334z" fill="#8D5EB7" mask="url(#d)"/><path d="M96.025 118.295c2.572 5.156 9.713 5.702 13.038.997l11.147-15.773 18.499-26.177H75.6l13.055 26.177 7.37 14.776z" fill="#8D5EB7" mask="url(#d)"/><path d="M115.298 151.456c3.546 8.661 15.807 8.661 19.354 0l10.337-25.241 20.014-48.873H84.947l20.014 48.873 10.337 25.241z" fill="#52348C" mask="url(#d)"/><path d="M191.502 136.108c-3.69 7.4-13.937 8.183-18.709 1.43l-15.995-22.633-26.546-37.563h90.558l-18.733 37.563-10.575 21.203z" fill="#8D5EB7" mask="url(#d)"/><path d="M201.214 85.977l-26.484 34.339-12.597 16.334c-10.388 13.47-30.703 13.47-41.091 0l-12.598-16.334-26.483-34.34h119.253z" fill="#A576C7" mask="url(#d)"/><path d="M176.97 71.261l-5.299 6.871-2.52 3.269c-2.079 2.695-6.144 2.695-8.223 0l-2.52-3.269-5.3-6.871h23.863zm48.106 0l-5.3 6.871-2.52 3.269c-2.079 2.695-6.144 2.695-8.222 0l-2.521-3.269-5.3-6.871h23.863z" fill="#24C996" mask="url(#d)"/><path d="M121.605 71.261l-5.3 6.871-2.52 3.269c-2.078 2.695-6.143 2.695-8.222 0l-2.52-3.269-5.3-6.871h23.862z" fill="#CFE242" mask="url(#d)"/><path d="M109.674 71.261l-5.3 6.871-2.52 3.269c-2.079 2.695-6.144 2.695-8.222 0l-2.521-3.269-5.3-6.871h23.863z" fill="#CFE242" mask="url(#d)"/><path d="M179.008 94.457c-1.106 6.218-6.524 10.943-13.057 10.943s-11.952-4.725-13.057-10.943h26.114zm-44.338 16.436c-1.105 6.218-6.523 10.943-13.056 10.943-6.533 0-11.952-4.725-13.057-10.943h26.114z" fill="#B089D3" mask="url(#d)"/><path d="M130.179 165.592a4.493 4.493 0 1 0 4.492-4.494 4.493 4.493 0 0 0-4.492 4.494" fill="#8D5EB7" mask="url(#d)"/><path d="M144.689 154.254a2.892 2.892 0 1 0 5.783.002 2.892 2.892 0 0 0-5.783-.002" fill="#52348C" mask="url(#d)"/><path d="M99.584 135.948a2.183 2.183 0 1 0 4.366.001 2.183 2.183 0 0 0-4.366 0" fill="#8D5EB7" mask="url(#d)"/><path fill="#0CA39B" mask="url(#d)" d="M118.145 44.812h60.814v-3.04h-60.814zm8.216-12.677h44.382V29.51h-44.382z"/><path d="M172.411 22.193h-47.526a.815.815 0 0 1-.814-.815 1.47 1.47 0 0 1 1.47-1.471h46.215c.812 0 1.47.658 1.47 1.47 0 .45-.365.816-.815.816" fill="#A3D830" mask="url(#d)"/><path fill="#E88064" mask="url(#d)" d="M126.361 19.895h7.376v-9.869h-7.376z"/><path fill="#EFA075" mask="url(#d)" d="M133.737 19.895h11.564v-9.869h-11.564z"/><path d="M141.58 19.893h-4.123v-5.415c0-.299.243-.541.542-.541h3.04c.3 0 .542.242.542.541v5.415z" fill="#CC6D3E" mask="url(#d)"/><path d="M139.179 16.95a.397.397 0 1 1-.795 0 .397.397 0 0 1 .795 0" fill="#EFA075" mask="url(#d)"/><path d="M40.22 62.569a4.35 4.35 0 0 1 4.74-3.105 6.697 6.697 0 0 1 9.41-3.158c.07-5.173 4.28-9.345 9.468-9.345 5.23 0 9.47 4.242 9.47 9.474 0 .13-.005.26-.01.389a6.698 6.698 0 0 1 7.906 5.745H40.221z" fill="#52348C" mask="url(#d)"/><path d="M71.862 62.85a4.35 4.35 0 0 0-4.739-3.104 6.697 6.697 0 0 0-9.41-3.159c-.07-5.172-4.28-9.344-9.468-9.344-5.23 0-9.47 4.242-9.47 9.474 0 .13.005.26.01.388a6.698 6.698 0 0 0-7.906 5.745h40.983z" fill="#A3D830" mask="url(#d)"/><path fill="#383F79" mask="url(#d)" d="M21.741 62.574h3.55V56.81h-3.55z"/><path d="M21.344 29c.55-2.283 3.795-2.283 4.345 0l2.263 9.395 3.499 14.527a3.15 3.15 0 0 1-3.062 3.889h-9.745a3.15 3.15 0 0 1-3.062-3.89l3.499-14.526L21.344 29z" fill="#11BCB8" mask="url(#d)"/><path fill="#383F79" mask="url(#d)" d="M77.45 62.574H81V56.81h-3.55z"/><path d="M77.052 29c.55-2.283 3.796-2.283 4.345 0l2.263 9.395 3.5 14.527a3.15 3.15 0 0 1-3.063 3.889h-9.745a3.15 3.15 0 0 1-3.062-3.89l3.5-14.526L77.051 29z" fill="#11BCB8" mask="url(#d)"/><path d="M65.715 44.615h.002a3.663 3.663 0 0 1-.544-3.67 4.794 4.794 0 0 0 .351-1.806 4.794 4.794 0 0 0-1.294-3.282h.002a3.725 3.725 0 0 1-.82-3.683 2.836 2.836 0 1 0-5.396 0 3.725 3.725 0 0 1-.82 3.683h.001a4.794 4.794 0 0 0-1.294 3.282 4.8 4.8 0 0 0 .352 1.806 3.663 3.663 0 0 1-.544 3.67h.002a6.427 6.427 0 0 0 5.001 10.463 6.427 6.427 0 0 0 5.001-10.463" fill="#8B63EB" mask="url(#d)"/><path d="M59.472 62.574l1.011-23.206c.013-.294.449-.294.462 0l1.01 23.206h-2.483z" fill="#383F79" mask="url(#d)"/><path d="M60.343 50.48l3.975-3.482c.256-.224.607.128.384.383l-3.48 3.977-.879-.878zm.051-3.873L57.8 43.64c-.167-.19.095-.453.286-.286l2.964 2.597-.655.655z" fill="#5953AA" mask="url(#d)"/><path d="M48.492 151.456c3.547 8.661 15.807 8.661 19.354 0l10.337-25.241 20.014-48.873H18.141l20.014 48.873 10.337 25.241z" fill="#7247A0" mask="url(#d)"/><path d="M3.453 77.342h140.88a3.454 3.454 0 0 0 3.454-3.455c0-6.655-5.392-12.05-12.044-12.05H12.044C5.392 61.838 0 67.233 0 73.888a3.454 3.454 0 0 0 3.453 3.455" fill="#24C996" mask="url(#d)"/><path d="M54.236 136.65c10.388 13.47 30.703 13.47 41.091 0l12.597-16.334 33.143-42.974H8.496l33.142 42.974 12.598 16.334z" fill="#8D5EB7" mask="url(#d)"/><path d="M29.22 118.295c2.57 5.156 9.712 5.702 13.037.997l11.147-15.773 18.499-26.177H8.795L21.85 103.52l7.37 14.776z" fill="#8D5EB7" mask="url(#d)"/><path d="M116.761 128.494c-3.212 6.441-12.131 7.123-16.285 1.246l-13.923-19.702-23.106-32.696h78.825l-16.306 32.696-9.205 18.456z" fill="#8D5EB7" mask="url(#d)"/><path d="M134.408 85.977l-26.484 34.339-12.597 16.334c-10.388 13.47-30.703 13.47-41.091 0l-12.598-16.334-26.483-34.34h119.253z" fill="#A576C7" mask="url(#d)"/><path d="M110.165 71.261l-5.3 6.871-2.52 3.269c-2.079 2.695-6.144 2.695-8.223 0l-2.52-3.269-5.3-6.871h23.862zm36.175 0l-5.3 6.871-2.521 3.269c-2.079 2.695-6.144 2.695-8.222 0l-2.521-3.269-5.3-6.871h23.863zm-91.54 0l-5.3 6.871-2.52 3.269c-2.08 2.695-6.144 2.695-8.223 0l-2.52-3.269-5.3-6.871H54.8z" fill="#24C996" mask="url(#d)"/><path d="M42.868 71.261l-5.3 6.871-2.52 3.269c-2.078 2.695-6.143 2.695-8.222 0l-2.52-3.269-5.3-6.871h23.862z" fill="#24C996" mask="url(#d)"/><path d="M112.202 94.457c-1.106 6.218-6.524 10.943-13.057 10.943s-11.951-4.725-13.057-10.943h26.114zm-44.337 16.436c-1.106 6.218-6.524 10.943-13.057 10.943s-11.951-4.725-13.057-10.943h26.114z" fill="#B089D3" mask="url(#d)"/><path d="M63.373 165.592a4.493 4.493 0 1 0 4.492-4.494 4.493 4.493 0 0 0-4.492 4.494" fill="#52348C" mask="url(#d)"/><path d="M77.883 154.254a2.892 2.892 0 1 0 5.783.002 2.892 2.892 0 0 0-5.783-.002" fill="#A576C7" mask="url(#d)"/><path d="M32.778 135.948a2.183 2.183 0 1 0 4.366.001 2.183 2.183 0 0 0-4.366 0" fill="#8D5EB7" mask="url(#d)"/><path d="M181.613 61.678h-22.515c12.726 0 23.042 10.32 23.042 23.052v66.85h22.516V84.73c0-12.731-10.317-23.052-23.043-23.052" fill="#9EECFB" mask="url(#d)"/><path d="M197.081 151.368a6.691 6.691 0 0 0 13.38 0 6.691 6.691 0 1 0-13.38 0" fill="#FFF" mask="url(#d)"/><path d="M188.348 148.022a6.691 6.691 0 0 0 13.38 0 6.691 6.691 0 1 0-13.38 0" fill="#FFF" mask="url(#d)"/><path d="M190.007 156.743a5.862 5.862 0 0 0 5.86 5.863 5.862 5.862 0 0 0 5.861-5.863 5.862 5.862 0 0 0-5.86-5.863 5.862 5.862 0 0 0-5.86 5.863" fill="#FFF" mask="url(#d)"/><path d="M180.852 151.58a5.862 5.862 0 0 0 5.861 5.862 5.862 5.862 0 0 0 5.86-5.863 5.862 5.862 0 0 0-5.86-5.863 5.862 5.862 0 0 0-5.86 5.863m-8.594 3.135a3.346 3.346 0 1 0 6.691.001 3.346 3.346 0 0 0-6.691 0m43.339-1.765a1.673 1.673 0 1 0 3.346.001 1.673 1.673 0 0 0-3.346 0" fill="#FFF" mask="url(#d)"/><path d="M197.762 218.02c2.534 6.188 11.293 6.188 13.827 0l7.385-18.033 14.299-34.916h-57.195l14.3 34.916 7.384 18.033z" fill="#52348C" mask="url(#d)"/><path d="M165.585 165.071h100.648a2.467 2.467 0 0 0 2.467-2.468c0-4.754-3.852-8.608-8.604-8.608h-88.373a8.607 8.607 0 0 0-8.605 8.608 2.467 2.467 0 0 0 2.467 2.468" fill="#A3D830" mask="url(#d)"/><path d="M237.045 149.823a4.769 4.769 0 0 0-4.77 4.768h9.54a4.769 4.769 0 0 0-4.77-4.768" fill="#A3D830" mask="url(#d)"/><path d="M201.866 207.442c7.421 9.623 21.935 9.623 29.356 0l9-11.669 23.678-30.702h-94.712l23.678 30.702 9 11.67z" fill="#8D5EB7" mask="url(#d)"/><path d="M183.993 194.329c1.837 3.684 6.94 4.074 9.315.712l7.964-11.268 13.215-18.701h-45.085l9.327 18.7 5.264 10.557z" fill="#8D5EB7" mask="url(#d)"/><path d="M246.535 201.616c-2.295 4.601-8.667 5.089-11.634.89l-9.947-14.075-16.508-23.36h56.315l-11.65 23.36-6.576 13.185z" fill="#8D5EB7" mask="url(#d)"/><path d="M259.142 171.24l-18.92 24.533-9 11.67c-7.422 9.622-21.935 9.622-29.357 0l-9-11.67-18.92-24.533h85.197z" fill="#A576C7" mask="url(#d)"/><path d="M241.822 160.727l-3.786 4.909-1.8 2.335a3.708 3.708 0 0 1-5.875 0l-1.8-2.335-3.786-4.909h17.047zm25.844 0l-3.786 4.909-1.8 2.335a3.708 3.708 0 0 1-5.875 0l-1.8-2.335-3.787-4.909h17.048zm-65.398 0l-3.786 4.909-1.8 2.335a3.708 3.708 0 0 1-5.875 0l-1.8-2.335-3.786-4.909h17.047z" fill="#A3D830" mask="url(#d)"/><path d="M193.744 160.727l-3.786 4.909-1.8 2.335a3.708 3.708 0 0 1-5.875 0l-1.8-2.335-3.786-4.909h17.047z" fill="#A3D830" mask="url(#d)"/><path d="M243.278 177.299c-.79 4.442-4.661 7.817-9.328 7.817-4.668 0-8.539-3.375-9.328-7.817h18.656zm-31.676 11.742c-.79 4.442-4.66 7.818-9.328 7.818-4.667 0-8.538-3.376-9.328-7.818h18.656z" fill="#B089D3" mask="url(#d)"/><path d="M232.301 212.804a3.21 3.21 0 1 0 6.42.001 3.21 3.21 0 0 0-6.42-.001" fill="#8D5EB7" mask="url(#d)"/><path d="M221.188 223.805a2.066 2.066 0 1 0 4.132 0 2.066 2.066 0 0 0-4.132 0" fill="#52348C" mask="url(#d)"/><path d="M184.977 201.752a1.56 1.56 0 1 0 3.118 0 1.56 1.56 0 0 0-3.118 0" fill="#8D5EB7" mask="url(#d)"/><path d="M305.552 91.968h-52.04a1.276 1.276 0 0 1-1.275-1.276 4.45 4.45 0 0 1 4.449-4.451h45.693a4.45 4.45 0 0 1 4.449 4.45c0 .705-.572 1.277-1.276 1.277" fill="#24C996" mask="url(#d)"/><path d="M291.447 107.842c-6.19 8.026-18.295 8.026-24.485 0l-12.243-15.874h48.97l-12.242 15.874z" fill="#8D5EB7" mask="url(#d)"/><path d="M257.18 95.157l9.782 12.685c6.19 8.026 18.295 8.026 24.485 0l9.782-12.685h-44.05z" fill="#A576C7" mask="url(#d)"/><path d="M266.134 89.722l1.958 2.538.93 1.207c.768.996 2.27.996 3.038 0l.931-1.207 1.958-2.538h-8.815zm-13.362 0l1.957 2.538.931 1.207c.768.996 2.27.996 3.038 0l.93-1.207 1.958-2.538h-8.814zm33.813 0l1.958 2.538.93 1.207c.769.996 2.27.996 3.038 0l.931-1.207 1.958-2.538h-8.815z" fill="#24C996" mask="url(#d)"/><path d="M290.993 89.722l1.957 2.538.931 1.207c.768.996 2.27.996 3.038 0l.93-1.207 1.958-2.538h-8.814z" fill="#24C996" mask="url(#d)"/><path d="M265.382 98.29a4.902 4.902 0 0 0 4.823 4.042 4.902 4.902 0 0 0 4.823-4.042h-9.646zm16.378 6.071a4.902 4.902 0 0 0 4.822 4.043 4.902 4.902 0 0 0 4.823-4.043h-9.646z" fill="#B089D3" mask="url(#d)"/><path d="M292.234 117.89a1.66 1.66 0 1 1-3.319.001 1.66 1.66 0 0 1 3.319 0" fill="#8D5EB7" mask="url(#d)"/><path d="M267.202 111.893a1.068 1.068 0 1 1-2.137 0 1.068 1.068 0 0 1 2.137 0" fill="#A576C7" mask="url(#d)"/><path d="M295.526 110.933a.806.806 0 1 1-1.613 0 .806.806 0 0 1 1.613 0" fill="#8D5EB7" mask="url(#d)"/><path d="M197.759 81.4h-11.313a3.455 3.455 0 0 1-3.455-3.455 3.455 3.455 0 0 1 3.455-3.456h11.313a3.455 3.455 0 0 1 3.455 3.456 3.455 3.455 0 0 1-3.455 3.456" fill="#FFF" mask="url(#d)"/><path d="M224.35 142.787a3.54 3.54 0 1 1-7.081.001 3.54 3.54 0 0 1 7.081-.001m-10.342-5.307a1.766 1.766 0 1 1-3.532 0 1.766 1.766 0 0 1 3.532 0m-38.298 5.307a1.766 1.766 0 1 1-3.53 0 1.766 1.766 0 0 1 3.53 0" fill="#9EECFB" mask="url(#d)"/><path d="M188.478 135.714a1.766 1.766 0 1 1-3.531 0 1.766 1.766 0 0 1 3.531 0" fill="#FFF" mask="url(#d)"/><path d="M174.044 61.678h-23.546V44.812h20.942a2.605 2.605 0 0 1 2.604 2.605v14.26zm-11.773-16.866h-13.35a2.838 2.838 0 0 1-2.837-2.84v-9.837h13.801a2.386 2.386 0 0 1 2.386 2.387v10.29z" fill="#9EECFB" mask="url(#d)"/><path d="M152.894 32.135h-9.587a2.609 2.609 0 0 1-2.608-2.61V19.75c0-.674.547-1.22 1.22-1.22h9.527c.8 0 1.448.648 1.448 1.448v12.158z" fill="#9EECFB" mask="url(#d)"/><path d="M170.385 51.23h-15.911a1.958 1.958 0 0 1 0-3.918h15.91a1.958 1.958 0 0 1 0 3.918m-10.869-15.31H148.84a1.314 1.314 0 0 1 0-2.628h10.675a1.314 1.314 0 0 1 0 2.628M150.8 21.25h-7.917a.975.975 0 0 1 0-1.95h7.917a.974.974 0 0 1 0 1.95" fill="#FFF" mask="url(#d)"/><path fill="#383F79" mask="url(#d)" d="M155.902 19.907h1.709v-2.774h-1.71z"/><path d="M155.71 3.744c.265-1.098 1.828-1.098 2.092 0l1.09 4.523 1.684 6.993a1.517 1.517 0 0 1-1.474 1.873h-4.692a1.517 1.517 0 0 1-1.475-1.873l1.685-6.993 1.09-4.523z" fill="#11BCB8" mask="url(#d)"/><path d="M167.173 11.25a1.763 1.763 0 0 1-.262-1.767 2.308 2.308 0 0 0-.453-2.45v.001a1.793 1.793 0 0 1-.394-1.773 1.365 1.365 0 1 0-2.597 0h-.001c.2.619.049 1.297-.394 1.773a2.309 2.309 0 0 0-.454 2.45 1.76 1.76 0 0 1-.261 1.766 3.094 3.094 0 1 0 4.815 0" fill="#E88064" mask="url(#d)"/><path d="M164.167 19.896l.487-11.172c.006-.141.216-.141.222 0l.487 11.172h-1.196z" fill="#383F79" mask="url(#d)"/><path d="M164.586 14.073l1.914-1.676c.123-.107.292.062.185.185l-1.676 1.914-.423-.423zm.025-1.864l-1.25-1.428c-.08-.091.047-.217.138-.137l1.427 1.25-.315.315z" fill="#5953AA" mask="url(#d)"/><path d="M102.746 38.899c1.286-2.578 4.856-2.85 6.518-.499l6.521 9.228 10.197 14.43H91.197l7.196-14.43 4.353-8.73z" fill="#A576C7" mask="url(#d)"/><path d="M145.835 10.026h-19.832a.543.543 0 0 1-.453-.84l2.393-3.636a.914.914 0 0 1 .763-.412h14.425c.307 0 .594.155.763.412l2.394 3.635a.543.543 0 0 1-.453.841" fill="#D14B2C" mask="url(#d)"/><path d="M129.856 15.862a2.025 2.025 0 1 1 .001-4.05 2.025 2.025 0 0 1 0 4.05" fill="#CC6D3E" mask="url(#d)"/><path d="M129.856 15.014a1.178 1.178 0 1 1 0-2.355 1.178 1.178 0 0 1 0 2.355" fill="#EFA075" mask="url(#d)"/></g><path d="M753.237 578.429c-6.868 16.761-30.606 16.761-37.474 0L695.75 529.58 657 435h155l-38.75 94.58-20.013 48.849z" fill="#7247A0"/><g transform="translate(627 505)"><mask id="f" fill="#fff"><use xlink:href="#e"/></mask><path d="M83.73 99.953c-7.755 18.73-34.563 18.73-42.318 0L31.369 75.697.166.34h124.809L93.773 75.697 83.73 99.953z" fill="#52348C" mask="url(#f)"/></g><path d="M684.65 413.202c-6.7 0-12.388-5.143-12.945-11.935l-2.005-24.462c-.586-7.153 4.74-13.427 11.898-14.012 7.156-.59 13.435 4.738 14.022 11.89l2.004 24.462c.587 7.153-4.74 13.427-11.898 14.012-.36.03-.72.045-1.076.045m35.087-.099c-.831 0-1.674-.08-2.52-.246-7.047-1.383-11.638-8.213-10.254-15.256l5.327-27.11c1.383-7.041 8.22-11.631 15.265-10.247 7.047 1.383 11.638 8.213 10.253 15.256l-5.326 27.11c-1.218 6.197-6.656 10.493-12.745 10.493m2.562-56.592a11.7 11.7 0 0 1-10.993-7.716c-2.207-6.082.925-12.805 6.995-15.016l16.25-5.92c5.854-2.132 10.16-7.042 11.52-13.133l1.65-7.396c1.409-6.316 7.662-10.291 13.966-8.878 6.304 1.411 10.272 7.675 8.863 13.99l-1.651 7.397c-3.11 13.934-12.962 25.165-26.355 30.044l-16.25 5.92c-1.318.48-2.668.708-3.995.708" fill="#131316"/><path d="M757.264 320.94l-1.386-.361a5.727 5.727 0 0 1-4.089-6.985 5.714 5.714 0 0 1 6.972-4.097l1.386.361a5.727 5.727 0 0 1 4.09 6.986 5.715 5.715 0 0 1-6.973 4.096m5.902-15.484l-.16.613a2.522 2.522 0 1 1-4.881-1.275l.16-.613a2.522 2.522 0 1 1 4.88 1.275m4.185 5.105l-.485.284a2.238 2.238 0 0 1-3.067-.8 2.248 2.248 0 0 1 .8-3.073l.484-.284a2.239 2.239 0 0 1 3.067.8 2.247 2.247 0 0 1-.8 3.073m-15.009-3.919l.284.485c.626 1.07 2 1.428 3.067.8a2.247 2.247 0 0 0 .8-3.072l-.284-.485a2.239 2.239 0 0 0-3.067-.8 2.247 2.247 0 0 0-.8 3.072" fill="#FFF"/><path d="M706.853 395.065l-3.223.21c-20.227 1.31-37.688-14.014-39-34.229-1.312-20.215 14.021-37.666 34.248-38.977l3.223-.209c20.227-1.311 37.688 14.013 39 34.228 1.312 20.215-14.022 37.666-34.248 38.977" fill="#131316"/><path d="M706.285 384.144l-3.504.227c-12.166.788-22.669-8.429-23.458-20.588-.79-12.16 8.434-22.655 20.6-23.444l3.504-.227c12.165-.79 22.668 8.428 23.457 20.587.79 12.16-8.433 22.656-20.6 23.445" fill="#FFF"/><g transform="translate(681.732 339.865)"><mask id="h" fill="#fff"><use xlink:href="#g"/></mask><path d="M23.395 11.68l-5.106.33C.56 13.16-14.745-.271-15.895-17.99c-1.15-17.72 12.29-33.015 30.02-34.165l5.104-.33c17.73-1.15 33.034 12.282 34.185 30.001 1.15 17.72-12.29 33.015-30.02 34.165" fill="#E6E6E6" mask="url(#h)"/></g><path d="M668.655 386.775c-2.29 0-4.6-.722-6.561-2.217-3.907-2.977-5.225-8.09-3.565-12.456l-5.25-3.489a14.286 14.286 0 0 1-6.327-13.299 14.29 14.29 0 0 1 8.76-11.84l11.132-4.62c5.527-2.297 11.868.322 14.164 5.846 2.082 5.01.121 10.689-4.385 13.414l.063.042a14.366 14.366 0 0 1 6.195 9.55 14.359 14.359 0 0 1-2.735 11.048l-2.866 3.757a10.82 10.82 0 0 1-8.625 4.264" fill="#131316"/><path d="M732.925 285.417l4.373-.338c8.745-.678 15.294-8.324 14.616-17.064-.678-8.74-8.329-15.286-17.074-14.608-8.745.677-15.294 8.324-14.616 17.064l.339 4.37c.447 6.32 5.998 11.07 12.362 10.576m-72.862 5.647l-4.373.34c-8.745.677-16.396-5.869-17.074-14.609-.678-8.74 5.872-16.386 14.617-17.064 8.745-.677 16.396 5.868 17.074 14.608l.339 4.37c.533 6.314-4.22 11.862-10.583 12.355" fill="#000"/><path d="M724.245 337.453c-13.91 7.651-30.654 9.08-45.647 3.886l-1.3-.465c-15.123-5.183-25.538-18.174-26.703-33.188l-.285-3.678c-1.884-24.273 17.712-45.64 43.731-47.657 26.02-2.017 48.674 16.033 50.56 40.35l.32 4.11c1.151 14.84-6.89 29.088-20.676 36.642" fill="#FFF"/><path d="M694.255 259.11c-24.473 1.898-42.949 21.942-41.184 44.684l.285 3.678c1.079 13.898 10.83 25.981 24.841 30.783l1.335.478c14.28 4.945 30.1 3.599 43.377-3.705l.004-.002c12.752-6.987 20.306-20.333 19.246-34.001l-.319-4.11c-1.764-22.742-23.11-39.701-47.585-37.804m7.358 87.914a59.132 59.132 0 0 1-23.922-3.07l-1.327-.475c-16.068-5.507-27.282-19.478-28.53-35.58l-.286-3.678c-2.001-25.786 18.76-48.499 46.28-50.631 27.519-2.133 51.535 17.11 53.535 42.896l.32 4.11c1.228 15.833-7.45 31.253-22.107 39.284a59.222 59.222 0 0 1-23.963 7.144" fill="#000"/><path d="M663.076 288.812c4.044-7.773 12.63-10.78 19.176-6.715 6.547 4.064 8.574 13.66 4.53 21.433-4.045 7.773-12.63 10.78-19.177 6.715-6.546-4.064-8.574-13.66-4.53-21.433" fill="#000"/><path d="M722.568 331.722l-.003.002c-13.229 7.276-28.989 8.617-43.214 3.69l-1.324-.473c-13.977-4.79-23.704-16.846-24.78-30.714l.282 3.625c1.076 13.868 10.803 25.924 24.78 30.714l1.323.474c14.226 4.927 29.986 3.585 43.214-3.69l.004-.003c12.72-6.97 20.255-20.285 19.197-33.923l-.281-3.625c1.058 13.637-6.478 26.953-19.198 33.923" fill="#E6E6E6"/><path d="M704.93 315.234l-3.984 2.946c-1.229.882-2.84 1.007-4.143.321l-4.392-2.297c-1.208-.647-1.994-1.835-2.098-3.17a3.92 3.92 0 0 1 3.609-4.213l8.377-.649a3.92 3.92 0 0 1 4.216 3.607c.103 1.334-.487 2.676-1.584 3.455" fill="#000"/><path d="M699.675 328.96a18.806 18.806 0 0 1-13.722-4.464 2.306 2.306 0 0 1-.252-3.253 2.31 2.31 0 0 1 3.255-.252c5.965 5.104 14.974 4.406 20.081-1.557a2.306 2.306 0 1 1 3.507 3c-3.381 3.948-8.054 6.153-12.869 6.526" fill="#010202"/><path d="M699.663 328.507a1.846 1.846 0 0 1-1.984-1.697l-.739-9.522a1.846 1.846 0 0 1 3.683-.286l.738 9.522a1.846 1.846 0 0 1-1.698 1.983" fill="#010202"/><path d="M672.411 289.671c1.436-2.758 4.483-3.825 6.807-2.383 2.323 1.443 3.043 4.849 1.607 7.608-1.435 2.758-4.483 3.825-6.806 2.383-2.324-1.443-3.043-4.849-1.608-7.608" fill="#FFF"/><path d="M729.69 283.649c-5.195-7.057-14.142-8.704-19.983-3.68-5.841 5.025-6.364 14.819-1.17 21.875 5.196 7.057 14.143 8.704 19.984 3.68 5.841-5.025 6.364-14.818 1.169-21.875" fill="#000"/><path d="M720.599 285.937c-1.844-2.505-5.02-3.09-7.093-1.306-2.073 1.783-2.26 5.26-.415 7.764 1.844 2.504 5.02 3.09 7.093 1.306 2.073-1.783 2.259-5.26.415-7.764" fill="#FFF"/><path d="M840.193 434.996H567.68c-3.69 0-6.68-2.961-6.68-6.614 0-12.742 10.43-23.071 23.298-23.071h239.277c12.867 0 23.298 10.329 23.298 23.07 0 3.654-2.99 6.615-6.68 6.615" fill="#A3D830"/><path d="M741.33 549.497c-20.139 26.004-59.521 26.004-79.66 0l-24.42-31.533L573 435h257l-64.25 82.964-24.42 31.533z" fill="#8D5EB7"/><path d="M789.516 513.874c-4.972 9.93-18.776 10.983-25.205 1.92l-21.55-30.379L707 435h122l-25.238 50.415-14.246 28.459z" fill="#8D5EB7"/><path d="M620.517 533.819c6.235 12.442 23.548 13.76 31.61 2.406l27.024-38.06L724 435H571l31.651 63.164 17.866 35.655z" fill="#8D5EB7"/><path d="M587 451l51.3 66.263 35.283 45.573c14.62 18.885 43.213 18.885 57.834 0l35.283-45.573L818 451H587z" fill="#A576C7"/><path d="M579 420l12.88 16.95 6.127 8.063c5.053 6.65 14.933 6.65 19.985 0l6.127-8.063L637 420h-58zm135 0l12.88 16.95 6.127 8.063c5.053 6.65 14.933 6.65 19.985 0l6.127-8.063L772 420h-58z" fill="#A3D830"/><path d="M742 420l12.88 16.95 6.127 8.063c5.053 6.65 14.933 6.65 19.985 0l6.127-8.063L800 420h-58z" fill="#A3D830"/><path d="M630 467c2.16 11.932 12.741 21 25.5 21 12.758 0 23.34-9.068 25.5-21h-51zm85 32c2.16 11.932 12.741 21 25.5 21 12.758 0 23.34-9.068 25.5-21h-51z" fill="#B089D3"/><path d="M659 562.5a8.5 8.5 0 1 1-17 0 8.5 8.5 0 0 1 17 0" fill="#8D5EB7"/><path d="M690 593.5a5.5 5.5 0 1 1-11 0 5.5 5.5 0 0 1 11 0" fill="#A576C7"/><path d="M608 537.5a5.5 5.5 0 1 1-11 0 5.5 5.5 0 0 1 11 0m179-4.5a4 4 0 1 1-8 0 4 4 0 0 1 8 0" fill="#52348C"/><g transform="translate(907 127)"><path d="M265.236 193.17a3.85 3.85 0 0 1 4.196-2.746 5.928 5.928 0 0 1 8.33-2.791 8.377 8.377 0 0 1 8.38-8.26c4.63 0 8.384 3.75 8.384 8.375 0 .115-.004.229-.009.343a5.926 5.926 0 0 1 6.999 5.078h-36.28z" fill="#52348C"/><path d="M293.246 193.418a3.85 3.85 0 0 0-4.195-2.745 5.928 5.928 0 0 0-8.33-2.791 8.378 8.378 0 0 0-8.38-8.26c-4.63 0-8.384 3.75-8.384 8.375 0 .115.004.229.009.343a5.926 5.926 0 0 0-6.999 5.078h36.28z" fill="#24C996"/><path d="M75.056 199.079l16.964 3.298a164.521 164.521 0 0 0 62.786 0l16.964-3.298m-96.714 24.564l16.964 3.297a164.521 164.521 0 0 0 62.786 0l16.964-3.297" stroke="#AA5124" stroke-width="1.89"/><path d="M91.566 225.535c0 1.873-1.52 3.39-3.394 3.39a3.392 3.392 0 0 1-3.393-3.39c0-1.872 1.52-3.39 3.393-3.39a3.392 3.392 0 0 1 3.394 3.39m17.065 2.637c0 1.872-1.52 3.39-3.393 3.39a3.392 3.392 0 0 1-3.394-3.39c0-1.873 1.52-3.39 3.394-3.39a3.392 3.392 0 0 1 3.393 3.39m34.851.63c0 1.872-1.52 3.39-3.394 3.39a3.392 3.392 0 0 1-3.393-3.39c0-1.872 1.52-3.39 3.393-3.39a3.392 3.392 0 0 1 3.394 3.39m16.013-2.562c0 1.872-1.52 3.39-3.393 3.39a3.392 3.392 0 0 1-3.394-3.39c0-1.873 1.52-3.39 3.394-3.39a3.392 3.392 0 0 1 3.393 3.39m-33.95 3.074c0 1.873-1.52 3.39-3.394 3.39a3.392 3.392 0 0 1-3.393-3.39c0-1.872 1.52-3.39 3.393-3.39a3.392 3.392 0 0 1 3.394 3.39" fill="#C6773C"/><path d="M446.36 66.82c1.533-3.737 6.831-3.737 8.364 0l4.467 10.892 8.648 21.09h-34.594l8.649-21.09 4.466-10.892zm-86.014-33.366c2.107-5.136 9.387-5.136 11.493 0l10.526 25.668 16.273 39.68h-65.09l16.272-39.68 10.526-25.668z" fill="#E88064"/><mask id="j" fill="#fff"><use xlink:href="#i"/></mask><path fill="#9FADC4" mask="url(#j)" d="M394.078 31.892h22.4V11.669h-22.4z"/><path fill="#B6BFCE" mask="url(#j)" d="M390.136 11.669h30.284V5.528h-30.284z"/><path fill="#8A9CB7" mask="url(#j)" d="M394.078 15.204h22.4V11.67h-22.4z"/><path fill="#B6BFCE" mask="url(#j)" d="M390.136 5.528h6.342V.001h-6.342zm11.971 0h6.342V.001h-6.342zm11.971 0h6.342V.001h-6.342z"/><path d="M427.065 34.566h-41.337a.395.395 0 0 1-.395-.395 2.281 2.281 0 0 1 2.283-2.28h37.561a2.282 2.282 0 0 1 2.283 2.28.395.395 0 0 1-.395.395" fill="#24C996" mask="url(#j)"/><path d="M407.963 33.006h-5.37v-5.174a2.684 2.684 0 0 1 2.685-2.682 2.684 2.684 0 0 1 2.685 2.682v5.174zm-5.37 1.56h-14.39v8.146h34.15v-8.146z" fill="#52348C" mask="url(#j)"/><path d="M436.179 62.047l-5.27-5.265a2.403 2.403 0 0 0-1.699-.703h-2.427v4.81l9.396 1.158zm-62.391-11.591l1.934-1.933a3.827 3.827 0 0 1 2.705-1.12h3.777l4.416 4.413-9.91-.346-2.922-1.014zm53.259-14.33l-5.234-.473-2.083 1.524c-1.474 1.08-3.054 1.876-4.7 2.37l-7.628 2.287a13.984 13.984 0 0 1-5.298.536l-14.588-1.318-4.822 2.706 5.924 4.645 30.853 1.368 7.989-9.894-.413-3.75z" fill="#E2BF69" mask="url(#j)"/><path d="M379.802 56.644l50 4.518-2.755-25.036c-2.98 3.313-6.513 5.546-10.319 6.524l-9.073 2.331c-1.975.507-4 .67-6.035.487l-18.925-1.71-2.893 12.886z" fill="#52348C" mask="url(#j)"/><path d="M361.294 63.073l3.388-2.615a6.249 6.249 0 0 1 3.818-1.303h4.28l.362 5.888-11.848-1.97z" fill="#E2BF69" mask="url(#j)"/><path d="M425.154 75.908h2.249c1.467 0 2.853.673 3.759 1.825l4.307 5.478-11.653-5.192 1.338-2.11z" fill="#E59A03" mask="url(#j)"/><path d="M373.762 50.407h7.366l2.93 1.713a27.885 27.885 0 0 0 6.615 2.793l10.736 2.978a27.897 27.897 0 0 0 7.455 1.014h20.53l6.785 3.142-8.335 4.11-43.42-1.42-11.243-10.616.581-3.714z" fill="#E2BF69" mask="url(#j)"/><path d="M440.25 75.194h-70.365l3.877-24.787a35.424 35.424 0 0 0 14.521 7.457l12.77 3.15a35.455 35.455 0 0 0 8.492 1.033h26.634l4.07 13.147z" fill="#52348C" mask="url(#j)"/><path d="M361.28 63.12h10.466l4.164 2.433a39.622 39.622 0 0 0 9.398 3.97l15.254 4.23a39.639 39.639 0 0 0 10.592 1.441h29.17l9.64 4.464-11.843 5.84-61.693-2.018-15.973-15.083.825-5.277z" fill="#E2BF69" mask="url(#j)"/><path d="M401.107 250.753l45.737-98.216H340.292l49.197 98.378c2.414 4.826 9.34 4.73 11.618-.162" fill="#52348C" mask="url(#j)"/><path d="M411.845 179.523c-11.812 15.295-34.911 15.295-46.723 0l-14.324-18.547-37.686-48.795h150.743l-37.686 48.795-14.324 18.547z" fill="#8D5EB7" mask="url(#j)"/><path d="M442.927 175.608c-2.086 4.177-7.88 4.62-10.577.808l-19.747-27.904-25.711-36.33h87.713l-18.145 36.33-13.533 27.096z" fill="#8D5EB7" mask="url(#j)"/><path d="M411.753 212.485c-4.807 11.722-21.424 11.722-26.23 0l-14.01-34.161-27.125-66.143h108.5l-27.125 66.143-14.01 34.161z" fill="#8D5EB7" mask="url(#j)"/><path d="M334.287 81.924c1.42-2.845 5.366-3.146 7.204-.55l4.136 5.844 8.197 11.584h-27.966l5.785-11.584 2.644-5.294z" fill="#655EB5" mask="url(#j)"/><path d="M350.85 193.318c3.022 4.696 9.84 4.846 13.065.288l25.44-35.946 32.184-45.478H298.648l52.203 81.136z" fill="#8D5EB7" mask="url(#j)"/><path d="M320.684 121.985l32.436 42L377.847 196c8.022 10.387 23.71 10.387 31.733 0l24.726-32.016 32.436-41.999H320.684z" fill="#A576C7" mask="url(#j)"/><path d="M371.197 174.892l-39.81-53.054h79.205l-15.826 31.686-10.062 20.147c-2.646 5.299-9.951 5.959-13.506 1.22" fill="#8F64B5" mask="url(#j)"/><path d="M415.761 159.933l-7.248-15.455-16.022-22.64h60.397l-27.179 38.945c-2.538 3.637-8.065 3.164-9.948-.85" fill="#8F64B5" mask="url(#j)"/><path d="M346.617 122.204l16.27 21.066 14.423 18.675c3.002 3.887 8.874 3.887 11.877 0l14.422-18.675 16.27-21.066h-73.262z" fill="#A576C7" mask="url(#j)"/><path d="M375.325 107.525l4.543 5.883 2.161 2.799c1.782 2.307 5.268 2.307 7.05 0l2.16-2.799 4.544-5.883h-20.458z" fill="#A3D830" mask="url(#j)"/><path d="M365.095 107.525l4.544 5.883 2.16 2.799c1.783 2.307 5.268 2.307 7.05 0l2.161-2.799 4.544-5.883h-20.459zm67.927 0l4.543 5.883 2.161 2.799c1.782 2.307 5.267 2.307 7.05 0l2.16-2.799 4.544-5.883h-20.458zm-117.889 0l4.543 5.883 2.162 2.799c1.782 2.307 5.267 2.307 7.05 0l2.16-2.799 4.544-5.883h-20.459z" fill="#A3D830" mask="url(#j)"/><path d="M399.866 136.223c.908 5.1 5.359 8.976 10.725 8.976s9.816-3.876 10.724-8.976h-21.449z" fill="#A576C7" mask="url(#j)"/><path d="M366.64 131.736c.909 5.1 5.359 8.975 10.725 8.975s9.816-3.875 10.724-8.975H366.64z" fill="#B089D3" mask="url(#j)"/><path d="M354.37 143.783c.91 5.1 5.36 8.975 10.725 8.975 5.366 0 9.817-3.875 10.725-8.975h-21.45z" fill="#A576C7" mask="url(#j)"/><path d="M393.713 172.958c.909 5.1 5.359 8.975 10.725 8.975s9.816-3.875 10.724-8.975h-21.449z" fill="#B089D3" mask="url(#j)"/><path d="M438.87 190.662a5.105 5.105 0 0 1-5.108 5.103 5.105 5.105 0 0 1-5.108-5.103 5.105 5.105 0 0 1 5.108-5.103 5.105 5.105 0 0 1 5.108 5.103" fill="#8D5EB7" mask="url(#j)"/><path d="M373.215 202.245a3.286 3.286 0 0 1-3.287 3.284 3.286 3.286 0 0 1-3.288-3.284 3.286 3.286 0 0 1 3.288-3.284 3.286 3.286 0 0 1 3.287 3.284" fill="#A576C7" mask="url(#j)"/><path d="M460.711 159.151a2.48 2.48 0 0 1-2.481 2.48 2.48 2.48 0 1 1 0-4.959 2.48 2.48 0 0 1 2.481 2.48" fill="#8D5EB7" mask="url(#j)"/><path fill="#383F79" mask="url(#j)" d="M465.476 98.77h2.304v-3.734h-2.304z"/><path d="M465.218 77.018c.357-1.48 2.462-1.48 2.82 0l1.468 6.086 2.27 9.412a2.042 2.042 0 0 1-1.987 2.52h-6.323a2.042 2.042 0 0 1-1.986-2.52l2.27-9.412 1.468-6.086z" fill="#11BCB8" mask="url(#j)"/><path fill="#383F79" mask="url(#j)" d="M390.723 31.892h1.019V30.24h-1.02z"/><path d="M390.609 22.27c.158-.653 1.09-.653 1.247 0l.65 2.693 1.003 4.163a.903.903 0 0 1-.879 1.114h-2.796a.903.903 0 0 1-.879-1.114l1.004-4.163.65-2.692z" fill="#11BCB8" mask="url(#j)"/><path d="M324.275 85.927a2.622 2.622 0 0 1-.39-2.631c.162-.4.252-.837.252-1.295 0-.91-.352-1.737-.928-2.353a2.668 2.668 0 0 1-.588-2.64 2.035 2.035 0 0 0-1.937-2.659 2.035 2.035 0 0 0-1.937 2.658 2.667 2.667 0 0 1-.589 2.64h.001a3.435 3.435 0 0 0-.929 2.354c0 .458.09.895.253 1.295.357.882.208 1.89-.39 2.63a4.587 4.587 0 0 0-1.022 2.893 4.611 4.611 0 0 0 4.613 4.609 4.611 4.611 0 0 0 4.613-4.609 4.585 4.585 0 0 0-1.022-2.892" fill="#E88064" mask="url(#j)"/><path d="M319.792 98.802l.727-16.637c.009-.211.321-.211.33 0l.727 16.637h-1.784z" fill="#383F79" mask="url(#j)"/><path d="M320.418 90.131l2.854-2.496c.183-.16.435.092.275.275l-2.499 2.85-.63-.629zm.036-2.776l-1.863-2.127c-.12-.136.069-.324.205-.205l2.129 1.862-.47.47z" fill="#5953AA" mask="url(#j)"/><path d="M455.748 98.338h-99.976l5.508-35.218a50.335 50.335 0 0 0 20.633 10.594l18.142 4.477c3.948.974 8 1.467 12.067 1.467h37.842l5.784 18.68z" fill="#52348C" mask="url(#j)"/><path d="M427.047 36.126l-1.932-1.93a4.069 4.069 0 0 0-2.876-1.19h-19.646v1.56h15.735a4.07 4.07 0 0 1 2.876 1.19l.253.253 5.59.117z" fill="#E2BF69" mask="url(#j)"/><path fill="#E2BF69" mask="url(#j)" d="M402.593 33.006h5.37v-1.114h-5.37z"/><path d="M370.22 79.658h-4.137a1.113 1.113 0 1 1 0-2.224h4.137a1.113 1.113 0 1 1 0 2.224m16.992 9.619h-4.137a1.113 1.113 0 1 1 0-2.225h4.137a1.113 1.113 0 1 1 0 2.225m29.771 3.839h-4.137a1.113 1.113 0 0 1 0-2.224h4.137a1.113 1.113 0 0 1 0 2.224m7.619-9.19h-3.069a1.113 1.113 0 1 1 0-2.225h3.069a1.113 1.113 0 1 1 0 2.225m23.874 11.414h-3.069a1.113 1.113 0 1 1 0-2.223h3.069a1.113 1.113 0 1 1 0 2.224m-88.309-2.225h-3.068a1.113 1.113 0 0 1 0-2.224h3.068a1.113 1.113 0 0 1 0 2.224" fill="#8D5EB7" mask="url(#j)"/><path d="M349.551 74.18c1.369-2.741 5.17-3.032 6.94-.53l6.943 9.81 10.856 15.341h-37.036l7.661-15.34 4.636-9.282z" fill="#A576C7" mask="url(#j)"/><path d="M365.095 98.715a6.807 6.807 0 0 0-13.4 0h13.4zm56.445 0a4.621 4.621 0 0 0-9.098 0h9.097z" fill="#11BCB8" mask="url(#j)"/><path fill="#383F79" mask="url(#j)" d="M454.596 98.77h2.304v-3.734h-2.304z"/><path d="M454.338 77.018c.357-1.48 2.463-1.48 2.82 0l1.468 6.086 2.27 9.412a2.042 2.042 0 0 1-1.987 2.52h-6.322a2.042 2.042 0 0 1-1.987-2.52l2.27-9.412 1.468-6.086z" fill="#11BCB8" mask="url(#j)"/><path d="M476.898 112.18h-180.96a3.08 3.08 0 0 1-3.082-3.079c0-5.932 4.814-10.74 10.752-10.74h165.62c5.939 0 10.752 4.808 10.752 10.74 0 1.701-1.38 3.08-3.082 3.08m-279.291 94.906h128.868a3.157 3.157 0 0 0 3.159-3.156c0-6.078-4.933-11.006-11.017-11.006H205.465c-6.085 0-11.017 4.928-11.017 11.006a3.157 3.157 0 0 0 3.159 3.156" fill="#A3D830" mask="url(#j)"/><path d="M244.06 261.262c9.502 12.304 28.085 12.304 37.587 0l11.523-14.92 30.317-39.255H202.219l30.317 39.254 11.523 14.92z" fill="#8D5EB7" mask="url(#j)"/><path d="M221.176 244.495c2.352 4.71 8.884 5.209 11.926.91l10.197-14.407 16.92-23.91h-57.726l11.942 23.91 6.74 13.497z" fill="#8D5EB7" mask="url(#j)"/><path d="M238.805 274.786c3.245 7.912 14.46 7.912 17.704 0l9.456-23.057 18.307-44.642h-73.23l18.308 44.642 9.455 23.057z" fill="#52348C" mask="url(#j)"/><path d="M301.253 253.812c-2.938 5.883-11.097 6.506-14.896 1.138l-12.736-17.997-21.136-29.865h72.105l-14.917 29.865-8.42 16.859z" fill="#8D5EB7" mask="url(#j)"/><path d="M317.395 214.975l-24.225 31.367-11.523 14.92c-9.502 12.303-28.085 12.303-37.588 0l-11.523-14.92-24.225-31.367h109.084z" fill="#A576C7" mask="url(#j)"/><path d="M295.22 201.533l-4.848 6.276-2.306 2.986c-1.901 2.462-5.62 2.462-7.521 0l-2.306-2.986-4.847-6.276h21.828zm33.09 0l-4.848 6.276-2.306 2.986c-1.901 2.462-5.62 2.462-7.521 0l-2.306-2.986-4.847-6.276h21.827z" fill="#A3D830" mask="url(#j)"/><path d="M244.575 201.533l-4.848 6.276-2.305 2.986c-1.902 2.462-5.62 2.462-7.522 0l-2.305-2.986-4.848-6.276h21.828z" fill="#CFE242" mask="url(#j)"/><path d="M233.661 201.533l-4.848 6.276-2.305 2.986c-1.902 2.462-5.62 2.462-7.522 0l-2.305-2.986-4.848-6.276h21.828z" fill="#CFE242" mask="url(#j)"/><path d="M297.083 222.72c-1.012 5.68-5.968 9.996-11.944 9.996-5.976 0-10.932-4.316-11.944-9.995h23.888zm-40.557 15.014c-1.011 5.68-5.968 9.996-11.943 9.996-5.976 0-10.933-4.316-11.944-9.996h23.887z" fill="#B089D3" mask="url(#j)"/><path d="M252.417 287.698a4.107 4.107 0 0 0 4.11 4.105 4.107 4.107 0 0 0 4.108-4.105 4.107 4.107 0 0 0-4.109-4.105 4.107 4.107 0 0 0-4.109 4.105" fill="#8D5EB7" mask="url(#j)"/><path d="M265.69 277.342a2.643 2.643 0 0 0 2.645 2.642 2.644 2.644 0 0 0 2.645-2.642 2.644 2.644 0 0 0-2.645-2.642 2.643 2.643 0 0 0-2.645 2.642" fill="#A576C7" mask="url(#j)"/><path d="M224.431 260.62c0 1.102.894 1.995 1.997 1.995a1.995 1.995 0 1 0-1.997-1.995" fill="#8D5EB7" mask="url(#j)"/><path d="M192.414 274.786c3.244 7.912 14.46 7.912 17.704 0l9.455-23.057 18.308-44.642h-73.23l18.307 44.642 9.456 23.057z" fill="#7247A0" mask="url(#j)"/><path d="M151.215 207.087h128.869a3.157 3.157 0 0 0 3.158-3.156c0-6.078-4.932-11.006-11.017-11.006H159.074c-6.085 0-11.017 4.928-11.017 11.006a3.157 3.157 0 0 0 3.158 3.156" fill="#A3D830" mask="url(#j)"/><path d="M197.668 261.262c9.502 12.304 28.085 12.304 37.588 0l11.523-14.92 30.317-39.255H155.828l30.317 39.254 11.523 14.92z" fill="#8D5EB7" mask="url(#j)"/><path d="M174.785 244.495c2.352 4.71 8.884 5.209 11.926.91l10.196-14.407 16.922-23.91h-57.727l11.942 23.91 6.74 13.497z" fill="#8D5EB7" mask="url(#j)"/><path d="M254.862 253.812c-2.938 5.883-11.097 6.506-14.897 1.138l-12.735-17.997-21.136-29.865h72.104l-14.916 29.865-8.42 16.859z" fill="#8D5EB7" mask="url(#j)"/><path d="M271.004 214.975l-24.225 31.367-11.523 14.92c-9.503 12.303-28.086 12.303-37.588 0l-11.523-14.92-24.225-31.367h109.084z" fill="#A576C7" mask="url(#j)"/><path d="M248.828 201.533l-4.847 6.276-2.306 2.986c-1.902 2.462-5.62 2.462-7.521 0l-2.306-2.986-4.847-6.276h21.827zm33.09 0l-4.848 6.276-2.305 2.986c-1.902 2.462-5.62 2.462-7.522 0l-2.305-2.986-4.848-6.276h21.828zm-83.734 0l-4.848 6.276-2.306 2.986c-1.901 2.462-5.62 2.462-7.521 0l-2.306-2.986-4.847-6.276h21.828z" fill="#A3D830" mask="url(#j)"/><path d="M187.27 201.533l-4.848 6.276-2.306 2.986c-1.901 2.462-5.62 2.462-7.521 0l-2.306-2.986-4.847-6.276h21.828z" fill="#A3D830" mask="url(#j)"/><path d="M250.691 222.72c-1.011 5.68-5.967 9.996-11.943 9.996s-10.933-4.316-11.944-9.995h23.887zm-40.556 15.014c-1.012 5.68-5.968 9.996-11.944 9.996-5.976 0-10.932-4.316-11.944-9.996h23.888z" fill="#B089D3" mask="url(#j)"/><path d="M206.026 287.698a4.107 4.107 0 0 0 4.109 4.105 4.107 4.107 0 0 0 4.109-4.105 4.107 4.107 0 0 0-4.11-4.105 4.107 4.107 0 0 0-4.108 4.105" fill="#52348C" mask="url(#j)"/><path d="M219.299 277.342a2.643 2.643 0 0 0 2.645 2.642 2.644 2.644 0 0 0 2.644-2.642 2.644 2.644 0 0 0-2.644-2.642 2.643 2.643 0 0 0-2.645 2.642" fill="#A576C7" mask="url(#j)"/><path d="M178.04 260.62a1.995 1.995 0 1 0 1.996-1.994 1.995 1.995 0 0 0-1.996 1.994" fill="#8D5EB7" mask="url(#j)"/><path d="M2.228 203.66h90.895c1.23 0 2.228-.996 2.228-2.226 0-4.287-3.48-7.763-7.77-7.763H7.77c-4.292 0-7.771 3.476-7.771 7.763 0 1.23.997 2.226 2.228 2.226" fill="#24C996" mask="url(#j)"/><g mask="url(#j)"><path d="M26.806 177.86h.001a3.255 3.255 0 0 1-.461-3.195 4.277 4.277 0 0 0 .298-1.573 4.233 4.233 0 0 0-1.098-2.857h.001a3.305 3.305 0 0 1-.695-3.206c.075-.24.117-.494.117-.76 0-1.363-1.077-2.469-2.406-2.469-1.33 0-2.406 1.106-2.406 2.47 0 .265.041.519.117.759a3.304 3.304 0 0 1-.696 3.206 4.233 4.233 0 0 0-1.097 2.857c0 .557.107 1.087.298 1.573a3.255 3.255 0 0 1-.461 3.195h.001a5.665 5.665 0 0 0-1.208 3.512c0 3.09 2.44 5.596 5.452 5.596 3.01 0 5.452-2.506 5.452-5.596a5.66 5.66 0 0 0-1.209-3.512" fill="#E88064"/><path d="M21.509 193.493l.858-20.201c.011-.257.38-.257.391 0l.859 20.201h-2.108z" fill="#383F79"/><path d="M22.248 182.965l3.373-3.031c.216-.195.515.111.325.334l-2.953 3.462-.745-.765zm.043-3.372l-2.202-2.581c-.141-.166.082-.394.243-.25l2.515 2.26-.556.571z" fill="#5953AA"/></g><g mask="url(#j)"><path fill="#383F79" d="M41.621 193.795h3.48v-5.64h-3.48z"/><path d="M41.232 160.938c.539-2.234 3.72-2.234 4.258 0l2.218 9.194 3.429 14.217a3.084 3.084 0 0 1-3 3.806h-9.551a3.084 3.084 0 0 1-3.001-3.806l3.429-14.217 2.218-9.194z" fill="#11BCB8"/></g><path d="M26.865 231.348c10.812 14 31.955 14 42.767 0l21.384-27.688H5.48l21.384 27.688z" fill="#8D5EB7" mask="url(#j)"/><path d="M86.719 209.224l-17.087 22.124c-10.812 14-31.955 14-42.767 0L9.778 209.224h76.94z" fill="#A576C7" mask="url(#j)"/><path d="M71.078 199.743l-3.42 4.427-1.626 2.105a3.352 3.352 0 0 1-5.305 0l-1.626-2.105-3.42-4.427h15.397zm23.339 0l-3.42 4.427-1.625 2.105a3.352 3.352 0 0 1-5.306 0l-1.626-2.105-3.42-4.427h15.397zm-59.061 0l-3.419 4.427-1.626 2.105a3.352 3.352 0 0 1-5.305 0l-1.626-2.105-3.42-4.427h15.396z" fill="#24C996" mask="url(#j)"/><path d="M27.658 199.743l-3.419 4.427-1.626 2.105a3.352 3.352 0 0 1-5.305 0l-1.626-2.105-3.42-4.427h15.396z" fill="#24C996" mask="url(#j)"/><path d="M72.392 214.687c-.714 4.006-4.21 7.05-8.425 7.05-4.215 0-7.71-3.044-8.424-7.05h16.849zm-28.606 10.59c-.714 4.006-4.21 7.05-8.424 7.05-4.215 0-7.711-3.044-8.425-7.05h16.849z" fill="#B089D3" mask="url(#j)"/><path d="M25.49 248.874a2.897 2.897 0 0 0 2.899 2.896 2.897 2.897 0 0 0 0-5.79 2.897 2.897 0 0 0-2.899 2.894" fill="#8D5EB7" mask="url(#j)"/><path d="M69.212 238.414a1.864 1.864 0 1 0 3.729-.002 1.864 1.864 0 0 0-3.729.002" fill="#A576C7" mask="url(#j)"/><path d="M19.74 236.74a1.407 1.407 0 1 0 2.815-.002 1.407 1.407 0 0 0-2.815.002" fill="#8D5EB7" mask="url(#j)"/><path d="M133.297 246.074h77.018c1.23 0 2.228-.996 2.228-2.226 0-4.287-3.479-7.763-7.77-7.763h-65.934c-4.291 0-7.77 3.476-7.77 7.763 0 1.23.997 2.226 2.228 2.226" fill="#24C996" mask="url(#j)"/><path d="M154.16 268.876c8.904 11.528 26.316 11.528 35.22 0l17.61-22.802h-70.44l17.61 22.802z" fill="#8D5EB7" mask="url(#j)"/><path d="M203.451 250.656l-14.071 18.22c-8.904 11.528-26.316 11.528-35.22 0l-14.072-18.22h63.363z" fill="#A576C7" mask="url(#j)"/><path d="M202.146 242.157l-3.419 4.427-1.626 2.105a3.352 3.352 0 0 1-5.305 0l-1.627-2.105-3.419-4.427h15.396zm-35.721 0l-3.42 4.427-1.626 2.105a3.352 3.352 0 0 1-5.305 0l-1.626-2.105-3.42-4.427h15.397z" fill="#24C996" mask="url(#j)"/><path d="M158.727 242.157l-3.42 4.427-1.625 2.105a3.352 3.352 0 0 1-5.306 0l-1.626-2.105-3.42-4.427h15.397z" fill="#24C996" mask="url(#j)"/><path d="M192.986 255.305c-.713 4.006-4.21 7.05-8.424 7.05-4.215 0-7.711-3.044-8.424-7.05h16.848zm-16.239 8.861c-.714 4.006-4.21 7.05-8.425 7.05-4.215 0-7.71-3.044-8.424-7.05h16.849z" fill="#B089D3" mask="url(#j)"/><path d="M195.285 269.86a2.897 2.897 0 0 0 2.899 2.896c1.6 0 2.898-1.296 2.898-2.895a2.897 2.897 0 0 0-2.898-2.896 2.897 2.897 0 0 0-2.899 2.896m-48.261-3.31a1.407 1.407 0 1 0 2.815-.001 1.407 1.407 0 0 0-2.815.001" fill="#8D5EB7" mask="url(#j)"/><path fill="#383F79" mask="url(#j)" d="M186.612 192.895h3.48v-5.64h-3.48z"/><path d="M186.222 160.038c.54-2.234 3.72-2.234 4.259 0l2.218 9.194 3.429 14.217a3.084 3.084 0 0 1-3.001 3.806h-9.551a3.084 3.084 0 0 1-3-3.806l3.429-14.217 2.217-9.194z" fill="#11BCB8" mask="url(#j)"/><path fill="#383F79" mask="url(#j)" d="M241.208 192.895h3.48v-5.64h-3.48z"/><path d="M240.818 160.038c.54-2.234 3.72-2.234 4.259 0l2.217 9.194 3.43 14.217a3.084 3.084 0 0 1-3.001 3.806h-9.551a3.084 3.084 0 0 1-3-3.806l3.428-14.217 2.218-9.194zm-42.187 28.09a4.769 4.769 0 0 0-4.77 4.766h9.541a4.769 4.769 0 0 0-4.77-4.766" fill="#11BCB8" mask="url(#j)"/><path d="M229.708 175.32a3.58 3.58 0 0 1-.532-3.592 4.686 4.686 0 0 0 .345-1.768c0-1.241-.482-2.37-1.269-3.211h.002a3.641 3.641 0 0 1-.803-3.605 2.778 2.778 0 0 0-2.644-3.63 2.778 2.778 0 0 0-2.645 3.63 3.641 3.641 0 0 1-.804 3.605h.002a4.688 4.688 0 0 0-1.268 3.211c0 .626.123 1.222.345 1.768a3.58 3.58 0 0 1-.533 3.592 6.26 6.26 0 0 0-1.395 3.948 6.294 6.294 0 0 0 6.297 6.291 6.294 6.294 0 0 0 6.297-6.291 6.26 6.26 0 0 0-1.395-3.948" fill="#8B63EB" mask="url(#j)"/><path d="M223.59 192.894l.99-22.71c.013-.288.44-.288.452 0l.991 22.71h-2.434z" fill="#383F79" mask="url(#j)"/><path d="M224.443 181.059l3.896-3.408c.25-.218.594.126.375.376l-3.41 3.892-.861-.86zm.05-3.79l-2.544-2.903c-.163-.186.094-.443.28-.28l2.906 2.541-.642.642z" fill="#5953AA" mask="url(#j)"/><path d="M233.661 253.876H219.3v-7.174a7.177 7.177 0 0 1 7.181-7.174 7.178 7.178 0 0 1 7.181 7.174v7.174z" fill="#8D5EB7" mask="url(#j)"/><path d="M228.59 466.016c-5.132 0-9.291-4.155-9.291-9.281v-206.08h9.221c5.17 0 9.36 4.188 9.36 9.352v196.728c0 5.126-4.159 9.281-9.29 9.281" fill="#9EECFB" mask="url(#j)"/><path d="M234.133 262.982h-11.087a3.384 3.384 0 0 1-3.385-3.382 3.384 3.384 0 0 1 3.385-3.382h11.087a3.384 3.384 0 0 1 3.386 3.382 3.384 3.384 0 0 1-3.386 3.382" fill="#FFF" mask="url(#j)"/><path d="M254.317 439.83a3.467 3.467 0 0 1-3.47 3.465 3.467 3.467 0 0 1-3.468-3.466 3.467 3.467 0 0 1 3.469-3.465 3.467 3.467 0 0 1 3.469 3.465m-44.702-21.439a3.467 3.467 0 0 1-3.469 3.466 3.467 3.467 0 0 1-3.47-3.466 3.467 3.467 0 0 1 3.47-3.465 3.467 3.467 0 0 1 3.47 3.465" fill="#9EECFB" mask="url(#j)"/><path d="M235.528 434.722a3.467 3.467 0 0 1-3.469 3.465 3.467 3.467 0 0 1-3.47-3.465 3.467 3.467 0 0 1 3.47-3.466 3.467 3.467 0 0 1 3.47 3.466" fill="#FFF" mask="url(#j)"/><path d="M247.55 423.584a1.73 1.73 0 1 1-3.459-.002 1.73 1.73 0 0 1 3.459.002m-58.453 1.728a1.73 1.73 0 1 1-3.458-.002 1.73 1.73 0 0 1 3.458.002m115.841-232.387h14.854V95.911h-8.1a6.75 6.75 0 0 0-6.754 6.747v90.267z" fill="#9EECFB" mask="url(#j)"/></g><path d="M1092.403 154.623c-1.61-5.409-6.62-9.357-12.563-9.357-1.368 0-2.688.21-3.928.6.158-1.083.241-2.189.241-3.315 0-12.745-10.352-23.077-23.124-23.077-.587 0-1.167.03-1.744.073-5.06-9.262-14.903-15.547-26.218-15.547-14.625 0-26.784 10.502-29.34 24.36-.782-.1-1.578-.156-2.388-.156-10.355 0-18.75 8.377-18.75 18.712-6.232 0-11.751 3.037-15.16 7.707h132.974zm-141.995 13.35a8.333 8.333 0 0 0-8.204-6.859 8.333 8.333 0 0 0-8.204 6.859h16.408zm165.448-24.015a8.333 8.333 0 0 0-8.203-6.86 8.333 8.333 0 0 0-8.204 6.86h16.407z" fill="#BCD9ED"/><g transform="matrix(-1 0 0 1 1196 241)"><mask id="l" fill="#fff"><use xlink:href="#k"/></mask><path d="M21.573 0c6.312 0 11.992 2.65 15.988 6.887a14.86 14.86 0 0 1 5.586-1.085c7.301 0 13.356 5.237 14.592 12.13H0C1.827 7.741 10.78 0 21.573 0" fill="#FFF" mask="url(#l)"/></g><path d="M64 315c1.355-4.594 5.577-7.947 10.581-7.947a11 11 0 0 1 3.309.508 19.692 19.692 0 0 1-.203-2.815c0-10.826 8.72-19.602 19.476-19.602.495 0 .984.025 1.47.061 4.261-7.867 12.552-13.205 22.081-13.205 12.319 0 22.56 8.92 24.713 20.692a15.71 15.71 0 0 1 2.011-.133c8.722 0 15.793 7.116 15.793 15.895 5.25 0 9.897 2.58 12.769 6.546H64z" fill="#FFF"/><g fill="#FFF"><path d="M-67 675c6.317-21.26 25.989-36.78 49.312-36.78 5.373 0 10.551.828 15.42 2.354a90.511 90.511 0 0 1-.946-13.027c0-50.101 40.637-90.717 90.767-90.717 2.306 0 4.584.113 6.849.282C114.264 500.705 152.9 476 197.312 476c57.41 0 105.139 41.283 115.171 95.759 3.07-.39 6.196-.614 9.373-.614 40.648 0 73.6 32.933 73.6 73.561 24.465 0 46.128 11.937 59.51 30.294H-67zm1084.83-8.104c5.86-19.722 24.108-34.118 45.742-34.118 4.984 0 9.787.77 14.303 2.185a83.96 83.96 0 0 1-.877-12.084c0-46.475 37.695-84.15 84.194-84.15 2.139 0 4.253.105 6.353.262 18.424-33.771 54.263-56.688 95.459-56.688 53.251 0 97.524 38.295 106.83 88.826a68.856 68.856 0 0 1 8.694-.569c37.705 0 68.271 30.549 68.271 68.235 22.693 0 42.787 11.073 55.201 28.1h-484.17z"/><path d="M318.576 646.117c4.508-15.193 18.55-26.283 35.199-26.283 3.834 0 7.53.592 11.006 1.683a64.749 64.749 0 0 1-.676-9.309c0-35.802 29.007-64.825 64.79-64.825 1.645 0 3.272.08 4.888.201 14.178-26.016 41.756-43.67 73.457-43.67 40.978 0 75.047 29.5 82.208 68.428a52.929 52.929 0 0 1 6.69-.438c29.014 0 52.536 23.533 52.536 52.565 17.462 0 32.925 8.53 42.478 21.648H318.576zm504.867 0c4.51-15.193 18.551-26.283 35.2-26.283 3.834 0 7.53.592 11.006 1.683a64.749 64.749 0 0 1-.676-9.309c0-35.802 29.007-64.825 64.789-64.825 1.646 0 3.273.08 4.889.201 14.177-26.016 41.756-43.67 73.457-43.67 40.978 0 75.047 29.5 82.208 68.428a52.929 52.929 0 0 1 6.69-.438c29.014 0 52.536 23.533 52.536 52.565 17.462 0 32.925 8.53 42.478 21.648H823.443z"/><path d="M958.435 646.117c-4.509-15.193-18.551-26.283-35.2-26.283-3.834 0-7.53.592-11.006 1.683.442-3.04.676-6.146.676-9.309 0-35.802-29.007-64.825-64.789-64.825-1.646 0-3.273.08-4.889.201-14.177-26.016-41.756-43.67-73.457-43.67-40.978 0-75.047 29.5-82.208 68.428a52.929 52.929 0 0 0-6.69-.438c-29.014 0-52.536 23.533-52.536 52.565-17.462 0-32.925 8.53-42.477 21.648h372.576z"/></g><g transform="translate(442 293.144)"><mask id="n" fill="#fff"><use xlink:href="#m"/></mask><path d="M114.587 44.184c-1.464-5.112-6.138-8.852-11.681-8.852-.532 0-1.055.039-1.57.105-2.892-6.656-9.482-11.308-17.154-11.308a18.51 18.51 0 0 0-9.156 2.412C74.83 11.971 63.058.218 48.556.218c-14.623 0-26.478 11.95-26.478 26.689 0 .367.013.73.027 1.094a18.648 18.648 0 0 0-3.531-.34C9.023 27.66 1.148 34.87 0 44.184h114.587z" fill="#FFF" mask="url(#n)"/></g><path d="M584.911 340.205c-.78-4.422-4.605-7.783-9.217-7.783-4.611 0-8.436 3.36-9.216 7.783h18.433zm-61.135 9.576c-2.498-14.151-14.738-24.905-29.496-24.905-14.757 0-26.997 10.754-29.495 24.905h58.99z" fill="#FFF"/><path d="M379 104c-16.568 0-30-13.432-30-30 0-16.568 13.432-30 30-30 16.568 0 30 13.432 30 30 0 16.568-13.432 30-30 30z" fill="#FCC000"/><path d="M226.293 134.922c-1.344-4.48-5.53-7.748-10.492-7.748-1.143 0-2.245.174-3.28.496.13-.896.2-1.812.2-2.745 0-10.554-8.646-19.11-19.312-19.11-.49 0-.975.024-1.457.06A24.956 24.956 0 0 0 170.056 93c-12.214 0-22.369 8.697-24.504 20.173a15.898 15.898 0 0 0-1.994-.13c-8.648 0-15.66 6.938-15.66 15.497a15.688 15.688 0 0 0-12.661 6.382h111.056zm-118.59 11.056c-.58-3.228-3.424-5.68-6.851-5.68-3.428 0-6.272 2.452-6.852 5.68h13.703zM245.88 126.09c-.58-3.228-3.424-5.68-6.851-5.68-3.428 0-6.272 2.452-6.852 5.68h13.703z" fill="#BCD9ED"/><path d="M527.745 230.483l2.878 6.266m7.467-6.266l-2.878 6.266" stroke="#BCD9ED" stroke-width=".54" stroke-linecap="round"/><path d="M528.244 220.834c0 1.167-.95 2.112-2.122 2.112a2.117 2.117 0 0 1-2.122-2.112c0-1.166.95-2.112 2.122-2.112s2.122.946 2.122 2.112m13.69 0c0 1.167-.95 2.112-2.122 2.112a2.117 2.117 0 0 1-2.122-2.112c0-1.166.95-2.112 2.122-2.112s2.122.946 2.122 2.112m-6.822 20.316h-4.29l-.55-4.4h5.39z" fill="#BCD9ED"/><g transform="translate(525.075 217.08)"><mask id="p" fill="#fff"><use xlink:href="#o"/></mask><path d="M5.956 17.242h3.872a3.308 3.308 0 0 1 1.713-2.639 7.722 7.722 0 0 0 4.115-6.822c0-4.268-3.476-7.728-7.764-7.728C3.605.053.13 3.513.13 7.78a7.722 7.722 0 0 0 4.114 6.822 3.308 3.308 0 0 1 1.713 2.64" fill="#BCD9ED" mask="url(#p)"/></g><g transform="translate(1246 174)"><mask id="r" fill="#fff"><use xlink:href="#q"/></mask><path d="M35.336 0c10.338 0 19.64 4.417 26.186 11.478a23.973 23.973 0 0 1 9.15-1.808c11.958 0 21.877 8.73 23.9 20.215H0C2.992 12.905 17.656 0 35.336 0" fill="#FFF" mask="url(#r)"/></g></g></svg>