<svg width="31" height="80" xmlns="http://www.w3.org/2000/svg"><g fill="none" fill-rule="evenodd"><path d="M15.5 36.825l.72 42.815" stroke="#3B4859" stroke-width=".72" stroke-linecap="square" opacity=".368"/><path d="M15.5 34.83c8.56 0 15.5-10.613 15.5-19.23C31 6.986 24.06 0 15.5 0 6.94 0 0 6.985 0 15.6c0 8.617 6.94 19.23 15.5 19.23z" fill="#559CEC"/><ellipse fill="#FFF" transform="rotate(30 8.91 9.761)" cx="8.91" cy="9.761" rx="3.605" ry="4.898"/><ellipse fill="#FFF" transform="rotate(3 5.546 17.698)" cx="5.546" cy="17.698" rx="1.48" ry="2.011"/><rect fill="#559CEC" x="14.419" y="34.467" width="2.163" height="1.814" rx=".72"/><path d="M15.5 35.918c.597 0 1.28.44 1.528.987l.092.204c.247.545-.044.986-.64.986h-1.96c-.6 0-.887-.44-.64-.986l.092-.204c.247-.545.927-.987 1.528-.987z" fill="#559CEC"/></g></svg>