<svg width="39" height="100" xmlns="http://www.w3.org/2000/svg"><g fill="none" fill-rule="evenodd"><path d="M19.5 46.032l.907 53.518" stroke="#3B4859" stroke-width=".9" stroke-linecap="square" opacity=".368"/><path d="M19.5 43.537c10.77 0 19.5-13.266 19.5-24.036C39 8.731 30.27 0 19.5 0S0 8.731 0 19.501c0 10.77 8.73 24.036 19.5 24.036z" fill="#FC673E"/><ellipse fill="#FFF" transform="rotate(30 11.21 12.202)" cx="11.21" cy="12.202" rx="4.535" ry="6.122"/><ellipse fill="#FFF" transform="rotate(3 6.977 22.122)" cx="6.977" cy="22.122" rx="1.862" ry="2.513"/><rect fill="#FB673F" x="18.14" y="43.084" width="2.721" height="2.268" rx=".9"/><path d="M19.5 44.898c.751 0 1.611.55 1.922 1.233l.116.255c.31.68-.055 1.233-.804 1.233h-2.468c-.754 0-1.115-.55-.804-1.233l.116-.255c.31-.68 1.165-1.233 1.922-1.233z" fill="#FB673F"/></g></svg>