<svg width="31" height="41" xmlns="http://www.w3.org/2000/svg" xmlns:xlink="http://www.w3.org/1999/xlink"><defs><path id="a" d="M26.963.089H.222v28.803h26.741V.09z"/></defs><g fill="none" fill-rule="evenodd"><path d="M6.45 22.593l4.957 10.5m12.858-10.5l-4.956 10.5" stroke="#351F5B" stroke-width=".9" stroke-linecap="round"/><path d="M7.308 6.425c0 1.955-1.636 3.539-3.654 3.539S0 8.38 0 6.424C0 4.47 1.636 2.887 3.654 2.887S7.308 4.47 7.308 6.425m23.578 0c0 1.955-1.636 3.539-3.654 3.539s-3.654-1.584-3.654-3.54c0-1.954 1.636-3.538 3.654-3.538s3.654 1.584 3.654 3.539m-10.192 28.89l-.951-1.01a.67.67 0 0 0-.656-.186.645.645 0 0 0-.47.48l-.3 1.336h.002c-.046.203-.044.419.015.633.2.715.96 1.139 1.698.946.738-.193 1.175-.929.976-1.644a1.322 1.322 0 0 0-.314-.555m-10.501 0h-.001l.952-1.01a.67.67 0 0 1 .655-.186c.246.064.42.255.47.48l.3 1.336h-.001c.045.203.044.419-.016.633-.199.715-.959 1.139-1.697.946-.739-.193-1.176-.929-.977-1.644.06-.214.17-.402.315-.555" fill="#351F5B"/><path fill="#FCC000" d="M19.137 40.466H11.75l-.948-7.373h9.282z"/><path d="M16.656 36.095h.001l-.638-1.2a.65.65 0 0 0-.576-.339.65.65 0 0 0-.575.34l-.639 1.199a1.283 1.283 0 0 0-.152.607c0 .73.612 1.323 1.366 1.323.755 0 1.366-.593 1.366-1.323 0-.22-.055-.425-.153-.607" fill="#351F5B"/><g transform="translate(1.85 .136)"><mask id="b" fill="#fff"><use xlink:href="#a"/></mask><path d="M10.258 28.892h6.669c.152-1.86 1.26-3.522 2.95-4.422 4.216-2.179 7.086-6.48 7.086-11.432 0-7.152-5.986-12.95-13.37-12.95C6.207.088.221 5.886.221 13.038c0 4.952 2.87 9.253 7.086 11.432 1.69.9 2.798 2.562 2.95 4.422" fill="#E88064" mask="url(#b)"/></g><g transform="translate(6.94 .136)"><path d="M6.49 28.892h4.026c.092-1.86.76-3.522 1.781-4.422 2.545-2.179 4.278-6.48 4.278-11.432 0-7.152-3.614-12.95-8.072-12.95C4.045.088.43 5.886.43 13.038c0 4.952 1.732 9.253 4.278 11.432 1.02.9 1.689 2.562 1.78 4.422" fill="#8B63EA"/><ellipse fill="#E88064" cx="8.328" cy="14.707" rx="2.776" ry="14.261"/></g></g></svg>