<svg width="91" height="39" xmlns="http://www.w3.org/2000/svg" xmlns:xlink="http://www.w3.org/1999/xlink"><defs><path id="a" d="M90.908.193H.268v16.33h90.64z"/></defs><g fill="none" fill-rule="evenodd"><path d="M53.89 38.808H36.44a6.086 6.086 0 0 1-4.983-2.585L28.05 31.37h27.09v6.197c0 .685-.56 1.242-1.25 1.242" fill="#3B2572"/><path d="M83.392 31.827h1.92V1.639h-1.92c-4.542 0-8.223 3.66-8.223 8.176V23.65c0 4.516 3.681 8.177 8.223 8.177" fill="#52348C"/><g transform="translate(.022 .21)"><mask id="b" fill="#fff"><use xlink:href="#a"/></mask><path d="M38.84.192C13.575.192.268 7.504.268 16.523h90.64c0-9.019-24.934-16.33-52.066-16.33" fill="#E88064" mask="url(#b)"/></g><path d="M38.863 33.063c27.47 0 52.066-7.311 52.066-16.33H.29c0 9.019 15.519 16.33 38.574 16.33" fill="#52348C"/><path d="M38.863 7.715c-18.82 0-38.574 4.038-38.574 9.017h90.64c0-4.98-33.247-9.017-52.066-9.017" fill="#B065E5"/><path d="M38.863 25.75c18.82 0 52.066-4.037 52.066-9.017H.29c0 4.98 19.754 9.017 38.574 9.017" fill="#8B63EB"/><path d="M80.033 14.796c-4.275 0-5.492.867-5.492 1.937h13.233c0-1.07-3.466-1.937-7.741-1.937" fill="#52348C"/><path d="M80.033 18.67c4.275 0 7.74-.868 7.74-1.938H74.542c0 1.07 1.217 1.937 5.492 1.937" fill="#52348C"/></g></svg>